<svg width="72" height="72" viewBox="0 0 72 72" fill="none" xmlns="http://www.w3.org/2000/svg">
<g filter="url(#filter0_d_127_323)">
<rect x="20" y="16" width="32" height="32" rx="16" fill="#059625" shape-rendering="crispEdges"/>
<path d="M28.3645 32C28.3811 32 28.3976 31.9989 28.414 31.9967C31.0852 31.6343 33.6904 30.8899 36.1498 29.7862C38.6334 28.6688 40.941 27.1954 42.9998 25.4125L42.5569 27.1849C42.5336 27.2784 42.5483 27.3773 42.5979 27.4599C42.6474 27.5426 42.7278 27.6021 42.8212 27.6256C42.8502 27.6327 42.8798 27.6364 42.9096 27.6365C42.9907 27.6364 43.0693 27.6092 43.1332 27.5593C43.197 27.5093 43.2423 27.4395 43.262 27.3609L43.9892 24.4518C44.0026 24.3983 44.0036 24.3424 43.9921 24.2884C43.9806 24.2344 43.957 24.1837 43.9231 24.1402C43.8891 24.0966 43.8457 24.0614 43.7961 24.0372C43.7465 24.0129 43.6921 24.0003 43.6369 24.0002H40.7278C40.6314 24.0002 40.5389 24.0385 40.4707 24.1067C40.4025 24.1749 40.3642 24.2674 40.3642 24.3638C40.3642 24.4603 40.4025 24.5528 40.4707 24.621C40.5389 24.6892 40.6314 24.7275 40.7278 24.7275H42.6802C40.6354 26.5244 38.3339 28.0059 35.8516 29.123C33.4557 30.198 30.9177 30.9231 28.3154 31.276C28.224 31.2884 28.1407 31.335 28.0824 31.4065C28.0241 31.478 27.9951 31.5689 28.0013 31.661C28.0076 31.753 28.0486 31.8392 28.116 31.9022C28.1834 31.9651 28.2723 32.0001 28.3645 32ZM43.6369 39.2725H43.2732V29.4546C43.2732 29.3582 43.2349 29.2657 43.1667 29.1975C43.0985 29.1293 43.006 29.091 42.9096 29.091H39.2733C39.1769 29.091 39.0844 29.1293 39.0162 29.1975C38.948 29.2657 38.9097 29.3582 38.9097 29.4546V39.2725H38.1825V31.6364C38.1825 31.5399 38.1441 31.4474 38.076 31.3793C38.0078 31.3111 37.9153 31.2728 37.8188 31.2728H34.1826C34.0861 31.2728 33.9936 31.3111 33.9254 31.3793C33.8572 31.4474 33.8189 31.5399 33.8189 31.6364V39.2725H33.0917V33.8181C33.0917 33.7217 33.0534 33.6292 32.9852 33.561C32.917 33.4928 32.8245 33.4545 32.7281 33.4545H29.0918C28.9953 33.4545 28.9029 33.4928 28.8347 33.561C28.7665 33.6292 28.7282 33.7217 28.7282 33.8181V39.2725H28.3645C28.2681 39.2725 28.1756 39.3109 28.1074 39.379C28.0392 39.4472 28.0009 39.5397 28.0009 39.6362C28.0009 39.7326 28.0392 39.8251 28.1074 39.8933C28.1756 39.9615 28.2681 39.9998 28.3645 39.9998H43.6369C43.7333 39.9998 43.8258 39.9615 43.894 39.8933C43.9622 39.8251 44.0005 39.7326 44.0005 39.6362C44.0005 39.5397 43.9622 39.4472 43.894 39.379C43.8258 39.3109 43.7333 39.2725 43.6369 39.2725ZM39.637 29.8182H42.546V39.2725H39.637V29.8182ZM34.5462 32H37.4552V39.2725H34.5462V32ZM29.4554 34.1818H32.3644V39.2725H29.4554V34.1818Z" fill="white"/>
</g>
<defs>
<filter id="filter0_d_127_323" x="0" y="0" width="72" height="72" filterUnits="userSpaceOnUse" color-interpolation-filters="sRGB">
<feFlood flood-opacity="0" result="BackgroundImageFix"/>
<feColorMatrix in="SourceAlpha" type="matrix" values="0 0 0 0 0 0 0 0 0 0 0 0 0 0 0 0 0 0 127 0" result="hardAlpha"/>
<feOffset dy="4"/>
<feGaussianBlur stdDeviation="10"/>
<feComposite in2="hardAlpha" operator="out"/>
<feColorMatrix type="matrix" values="0 0 0 0 0 0 0 0 0 0 0 0 0 0 0 0 0 0 0.1 0"/>
<feBlend mode="normal" in2="BackgroundImageFix" result="effect1_dropShadow_127_323"/>
<feBlend mode="normal" in="SourceGraphic" in2="effect1_dropShadow_127_323" result="shape"/>
</filter>
</defs>
</svg>
