<svg width="72" height="72" viewBox="0 0 72 72" fill="none" xmlns="http://www.w3.org/2000/svg">
<g filter="url(#filter0_d_127_317)">
<rect x="20" y="16" width="32" height="32" rx="16" fill="#059625" shape-rendering="crispEdges"/>
<path d="M42.7044 28.1197C42.6962 27.6877 42.6884 27.2796 42.6884 26.8849C42.6884 26.7363 42.6294 26.5939 42.5243 26.4888C42.4193 26.3838 42.2769 26.3248 42.1283 26.3248C39.7332 26.3248 37.9097 25.6365 36.3896 24.1586C36.2851 24.0569 36.145 24 35.9992 24C35.8534 24 35.7133 24.0569 35.6088 24.1586C34.0889 25.6365 32.2657 26.3248 29.8707 26.3248C29.7222 26.3248 29.5797 26.3838 29.4747 26.4888C29.3697 26.5939 29.3107 26.7363 29.3107 26.8849C29.3107 27.2797 29.3029 27.688 29.2946 28.12C29.2178 32.14 29.1127 37.6457 35.8158 39.9691C35.9346 40.0103 36.0638 40.0103 36.1826 39.9691C42.8862 37.6456 42.7812 32.1398 42.7044 28.1197ZM35.9993 38.8457C30.2505 36.7573 30.3374 32.1825 30.4145 28.1414C30.4192 27.8988 30.4236 27.6638 30.4268 27.4333C32.6699 27.3386 34.4637 26.6589 35.9993 25.3212C37.535 26.6589 39.329 27.3387 41.5723 27.4333C41.5755 27.6637 41.5799 27.8986 41.5846 28.141C41.6616 32.1823 41.7485 36.7572 35.9993 38.8457Z" fill="white"/>
<path d="M37.928 30.0545L35.2249 32.7574L34.0715 31.604C33.9658 31.5019 33.8243 31.4454 33.6774 31.4466C33.5305 31.4479 33.39 31.5068 33.2861 31.6107C33.1822 31.7145 33.1233 31.8551 33.1221 32.002C33.1209 32.1489 33.1774 32.2904 33.2795 32.396L34.8289 33.9455C34.8809 33.9975 34.9426 34.0388 35.0106 34.067C35.0785 34.0951 35.1514 34.1096 35.2249 34.1095C35.2985 34.1096 35.3713 34.0951 35.4393 34.067C35.5072 34.0388 35.569 33.9975 35.6209 33.9455L38.7199 30.8466C38.7719 30.7946 38.8132 30.7329 38.8413 30.6649C38.8695 30.597 38.884 30.5242 38.884 30.4506C38.884 30.3771 38.8695 30.3042 38.8414 30.2363C38.8132 30.1684 38.772 30.1066 38.72 30.0546C38.6149 29.9496 38.4725 29.8906 38.324 29.8906C38.1755 29.8906 38.033 29.9495 37.928 30.0545Z" fill="white"/>
</g>
<defs>
<filter id="filter0_d_127_317" x="0" y="0" width="72" height="72" filterUnits="userSpaceOnUse" color-interpolation-filters="sRGB">
<feFlood flood-opacity="0" result="BackgroundImageFix"/>
<feColorMatrix in="SourceAlpha" type="matrix" values="0 0 0 0 0 0 0 0 0 0 0 0 0 0 0 0 0 0 127 0" result="hardAlpha"/>
<feOffset dy="4"/>
<feGaussianBlur stdDeviation="10"/>
<feComposite in2="hardAlpha" operator="out"/>
<feColorMatrix type="matrix" values="0 0 0 0 0 0 0 0 0 0 0 0 0 0 0 0 0 0 0.1 0"/>
<feBlend mode="normal" in2="BackgroundImageFix" result="effect1_dropShadow_127_317"/>
<feBlend mode="normal" in="SourceGraphic" in2="effect1_dropShadow_127_317" result="shape"/>
</filter>
</defs>
</svg>
